<svg width="640" height="480" viewBox="0 0 640 480" fill="none" xmlns="http://www.w3.org/2000/svg">
  <rect width="640" height="480" rx="32" fill="url(#paint0_radial)"/>
  <g filter="url(#filter0_f)">
    <path d="M120 320C120 268.294 162.294 226 214 226H426C477.706 226 520 268.294 520 320V352C520 369.673 505.673 384 488 384H152C134.327 384 120 369.673 120 352V320Z" fill="url(#paint1_linear)"/>
  </g>
  <g filter="url(#filter1_f)">
    <path d="M196 154C196 129.699 215.699 110 240 110H400C424.301 110 444 129.699 444 154V186C444 210.301 424.301 230 400 230H240C215.699 230 196 210.301 196 186V154Z" fill="url(#paint2_linear)"/>
  </g>
  <path d="M228 186L272 146H368L412 186" stroke="url(#paint3_linear)" stroke-width="16" stroke-linecap="round" stroke-linejoin="round" opacity="0.7"/>
  <path d="M232 226H408" stroke="url(#paint4_linear)" stroke-width="14" stroke-linecap="round" opacity="0.6"/>
  <path d="M188 272H452" stroke="url(#paint5_linear)" stroke-width="16" stroke-linecap="round" opacity="0.65"/>
  <path d="M216 312H424" stroke="url(#paint6_linear)" stroke-width="16" stroke-linecap="round" opacity="0.55"/>
  <path d="M256 348H384" stroke="url(#paint7_linear)" stroke-width="14" stroke-linecap="round" opacity="0.5"/>
  <circle cx="494" cy="148" r="80" fill="url(#paint8_radial)" opacity="0.65"/>
  <defs>
    <filter id="filter0_f" x="72" y="178" width="496" height="254" filterUnits="userSpaceOnUse" color-interpolation-filters="sRGB">
      <feFlood flood-opacity="0" result="BackgroundImageFix"/>
      <feBlend mode="normal" in="SourceGraphic" in2="BackgroundImageFix" result="shape"/>
      <feGaussianBlur stdDeviation="24" result="effect1_foregroundBlur"/>
    </filter>
    <filter id="filter1_f" x="148" y="62" width="344" height="216" filterUnits="userSpaceOnUse" color-interpolation-filters="sRGB">
      <feFlood flood-opacity="0" result="BackgroundImageFix"/>
      <feBlend mode="normal" in="SourceGraphic" in2="BackgroundImageFix" result="shape"/>
      <feGaussianBlur stdDeviation="24" result="effect1_foregroundBlur"/>
    </filter>
    <radialGradient id="paint0_radial" cx="0" cy="0" r="1" gradientUnits="userSpaceOnUse" gradientTransform="translate(156 88) rotate(28) scale(640 560)">
      <stop stop-color="#FFB436" stop-opacity="0.5"/>
      <stop offset="0.45" stop-color="#261103"/>
      <stop offset="1" stop-color="#120702"/>
    </radialGradient>
    <linearGradient id="paint1_linear" x1="120" y1="384" x2="520" y2="226" gradientUnits="userSpaceOnUse">
      <stop stop-color="#FFD580" stop-opacity="0.88"/>
      <stop offset="1" stop-color="#FF8C3A" stop-opacity="0.65"/>
    </linearGradient>
    <linearGradient id="paint2_linear" x1="196" y1="230" x2="444" y2="110" gradientUnits="userSpaceOnUse">
      <stop stop-color="#FFE6B8" stop-opacity="0.88"/>
      <stop offset="1" stop-color="#FFA155" stop-opacity="0.65"/>
    </linearGradient>
    <linearGradient id="paint3_linear" x1="228" y1="186" x2="412" y2="146" gradientUnits="userSpaceOnUse">
      <stop stop-color="#FFEFCF"/>
      <stop offset="1" stop-color="#FF9B4E" stop-opacity="0.65"/>
    </linearGradient>
    <linearGradient id="paint4_linear" x1="232" y1="226" x2="408" y2="226" gradientUnits="userSpaceOnUse">
      <stop stop-color="#FFDFA8"/>
      <stop offset="1" stop-color="#FF8E43" stop-opacity="0.6"/>
    </linearGradient>
    <linearGradient id="paint5_linear" x1="188" y1="272" x2="452" y2="272" gradientUnits="userSpaceOnUse">
      <stop stop-color="#FFD48B"/>
      <stop offset="1" stop-color="#FF7F36" stop-opacity="0.6"/>
    </linearGradient>
    <linearGradient id="paint6_linear" x1="216" y1="312" x2="424" y2="312" gradientUnits="userSpaceOnUse">
      <stop stop-color="#FFC870"/>
      <stop offset="1" stop-color="#FF742D" stop-opacity="0.55"/>
    </linearGradient>
    <linearGradient id="paint7_linear" x1="256" y1="348" x2="384" y2="348" gradientUnits="userSpaceOnUse">
      <stop stop-color="#FFBA56"/>
      <stop offset="1" stop-color="#FF6A26" stop-opacity="0.5"/>
    </linearGradient>
    <radialGradient id="paint8_radial" cx="0" cy="0" r="1" gradientUnits="userSpaceOnUse" gradientTransform="translate(460 166) rotate(30) scale(118)">
      <stop stop-color="#FFE99E" stop-opacity="0.8"/>
      <stop offset="1" stop-color="#FF902F" stop-opacity="0.2"/>
    </radialGradient>
  </defs>
</svg>
