<svg xmlns="http://www.w3.org/2000/svg" viewBox="0 0 1440 900" fill="none">
  <defs>
    <linearGradient id="heroGradient" x1="0" y1="0" x2="0" y2="1">
      <stop offset="0" stop-color="#1f1d1b" />
      <stop offset="0.55" stop-color="#2d2925" />
      <stop offset="1" stop-color="#3a332d" />
    </linearGradient>
    <linearGradient id="lightGlow" x1="0.2" y1="0.1" x2="0.8" y2="0.9">
      <stop offset="0" stop-color="#f6c27a" stop-opacity="0.7" />
      <stop offset="1" stop-color="#f28a52" stop-opacity="0.1" />
    </linearGradient>
    <radialGradient id="shelfLight" cx="0.5" cy="0.5" r="0.5">
      <stop offset="0" stop-color="#ffd18a" stop-opacity="0.9" />
      <stop offset="1" stop-color="#6b4b2b" stop-opacity="0" />
    </radialGradient>
  </defs>
  <rect width="1440" height="900" fill="url(#heroGradient)" />
  <rect x="140" y="120" width="260" height="520" rx="26" fill="#151311" opacity="0.7" />
  <g opacity="0.6">
    <rect x="160" y="170" width="220" height="80" rx="14" fill="#23201c" />
    <rect x="160" y="280" width="220" height="80" rx="14" fill="#23201c" />
    <rect x="160" y="390" width="220" height="80" rx="14" fill="#23201c" />
    <rect x="160" y="500" width="220" height="80" rx="14" fill="#23201c" />
    <circle cx="270" cy="210" r="30" fill="url(#shelfLight)" />
    <circle cx="270" cy="320" r="28" fill="url(#shelfLight)" />
    <circle cx="270" cy="430" r="25" fill="url(#shelfLight)" />
    <circle cx="270" cy="540" r="22" fill="url(#shelfLight)" />
  </g>
  <g opacity="0.8">
    <path d="M1180 560c10-140-40-260-140-340" stroke="#1b4d32" stroke-width="16" stroke-linecap="round" />
    <path d="M1180 560c-24-108-80-192-160-250" stroke="#1f5b3b" stroke-width="22" stroke-linecap="round" />
    <path d="M1180 560c-44-124-132-212-220-260" stroke="#2b7a4f" stroke-width="18" stroke-linecap="round" />
    <path d="M1090 580c12 70 20 140 20 210h-120c0-86 22-162 44-206" fill="#204f33" />
    <path d="M1000 790c-20-110-80-220-150-260" stroke="#35805d" stroke-width="14" stroke-linecap="round" />
  </g>
  <rect x="820" y="620" width="460" height="200" rx="30" fill="#1c1815" opacity="0.85" />
  <rect x="880" y="650" width="340" height="140" rx="18" fill="#27221d" />
  <rect x="420" y="640" width="320" height="180" rx="120" fill="#7a5a3d" opacity="0.55" />
  <rect x="500" y="680" width="180" height="120" rx="60" fill="#8c6643" opacity="0.6" />
  <rect x="560" y="700" width="100" height="100" rx="50" fill="#9e7853" opacity="0.75" />
  <path d="M0 620h1440v280H0z" fill="url(#lightGlow)" opacity="0.5" />
  <path d="M0 740h1440v160H0z" fill="#1e1b18" />
</svg>